<svg xmlns="http://www.w3.org/2000/svg" viewBox="0 0 700.47 700.22"><defs><style>.cls-1{fill:none;}</style></defs><title>safari</title><g id="Слой_2" data-name="Слой 2"><g id="Слой_1-2" data-name="Слой 1"><rect class="cls-1" y="0.22" width="700" height="700"/><path d="M299,419.15a12.76,12.76,0,0,1-17.64,0,12.49,12.49,0,0,1,0-17.64L320,362.8,288.26,331a18.11,18.11,0,0,0-25.56,0L155.83,437.9a18.07,18.07,0,0,0,0,25.55L237,544.63a18.09,18.09,0,0,0,25.55,0L369.43,437.77a18.06,18.06,0,0,0,0-25.56l-31.76-31.77Z"/><path d="M463.92,155.37a18,18,0,0,0-25.55,0L331.5,262.23a18.09,18.09,0,0,0,0,25.56l31.76,31.77,38.32-38.32a12.48,12.48,0,0,1,17.65,17.64L380.91,337.2,412.67,369a18.08,18.08,0,0,0,25.56,0L545.1,262.1a18.08,18.08,0,0,0,0-25.56Z"/><path d="M350.46,0c-193,0-350,157-350,350s157,350,350,350,350-157,350-350S543.46,0,350.46,0ZM562.29,279.29,455.42,386.16a42.42,42.42,0,0,1-59.94,0l-31.77-31.77-8.85,8.86L386.63,395a42.44,42.44,0,0,1,0,59.94L279.75,561.83a42.08,42.08,0,0,1-30,12.39h0a42.06,42.06,0,0,1-30-12.4l-81.18-81.17a42.43,42.43,0,0,1,0-59.94L245.51,313.84a42.42,42.42,0,0,1,59.94,0l31.76,31.77,8.86-8.86L314.3,305a42.44,42.44,0,0,1,0-59.94L421.17,138.17a42.45,42.45,0,0,1,59.95,0l81.17,81.18a42.42,42.42,0,0,1,0,59.94Z"/></g></g></svg>